<svg xmlns="http://www.w3.org/2000/svg" version="1.1" xmlns:xlink="http://www.w3.org/1999/xlink" xmlns:svgjs="http://svgjs.dev/svgjs" width="1500" height="1500" viewBox="0 0 1500 1500"><rect width="1500" height="1500" fill="#ffffff"></rect><g transform="matrix(0.6666666666666666,0,0,0.6666666666666666,249.39393939393938,697.3875430271266)"><svg viewBox="0 0 396 42" data-background-color="#ffffff" preserveAspectRatio="xMidYMid meet" height="159" width="1500" xmlns="http://www.w3.org/2000/svg" xmlns:xlink="http://www.w3.org/1999/xlink"><g id="tight-bounds" transform="matrix(1,0,0,1,0.2400000000000091,-0.15355478433318126)"><svg viewBox="0 0 395.52 42.30710956866634" height="42.30710956866634" width="395.52"><g><svg viewBox="0 0 395.52 42.30710956866634" height="42.30710956866634" width="395.52"><g><svg viewBox="0 0 395.52 42.30710956866634" height="42.30710956866634" width="395.52"><g id="textblocktransform"><svg viewBox="0 0 395.52 42.30710956866634" height="42.30710956866634" width="395.52" id="textblock"><g><svg viewBox="0 0 395.52 42.30710956866634" height="42.30710956866634" width="395.52"><g transform="matrix(1,0,0,1,0,0)"><svg width="395.52" viewBox="2 -42.3 403.36 43.15" height="42.30710956866634" data-palette-color="#000000"><path d="M29.7-37.9L29.7-33.55 18.3-33.55 18.3 0 13.4 0 13.4-33.55 2-33.55 2-37.9 29.7-37.9ZM49.35-28.25Q54.45-28.25 56.92-25.55 59.4-22.85 59.4-16.65L59.4-16.65 59.4 0 54.7 0 54.7-16.65Q54.7-20.55 53.37-22.2 52.05-23.85 48.7-23.85L48.7-23.85Q44.8-23.85 40.9-20.45L40.9-20.45 40.9 0 36.2 0 36.2-42.3 40.9-42.3 40.9-24.7Q44.95-28.25 49.35-28.25L49.35-28.25ZM71.35-13.45Q71.45-8.85 73.65-6.1 75.85-3.35 80.65-3.35L80.65-3.35Q84.3-3.35 88.65-5.4L88.65-5.4 90.1-1.5Q85.55 0.85 80.25 0.85L80.25 0.85Q75.85 0.85 72.75-1 69.65-2.85 68.05-6.15 66.45-9.45 66.45-13.85L66.45-13.85Q66.45-18.5 68.12-21.78 69.8-25.05 72.65-26.75 75.5-28.45 79.05-28.45L79.05-28.45Q84.5-28.45 87.6-25.05 90.7-21.65 90.7-15.3L90.7-15.3 90.7-13.45 71.35-13.45ZM79.05-24.25Q72.85-24.25 71.65-17.4L71.65-17.4 85.75-17.4Q85.5-20.9 83.85-22.58 82.2-24.25 79.05-24.25L79.05-24.25ZM134.44-37.9L139.49-37.9 125.24 0.45 119.84 0.45 105.54-37.9 110.64-37.9 122.54-5.6 134.44-37.9ZM145.69-32.85L145.69-40.4 150.39-40.4 150.39-32.85 145.69-32.85ZM145.69 0L145.69-27.65 150.39-27.65 150.39 0 145.69 0ZM166.44 0.65Q162.69 0.65 161.04-0.85 159.39-2.35 159.39-5.9L159.39-5.9 159.39-42.3 164.09-42.3 164.09-7.15Q164.09-5.15 164.71-4.42 165.34-3.7 167.09-3.7L167.09-3.7Q168.49-3.7 169.59-4L169.59-4 169.59 0.3Q167.59 0.65 166.44 0.65L166.44 0.65ZM182.38 0.65Q178.63 0.65 176.98-0.85 175.33-2.35 175.33-5.9L175.33-5.9 175.33-42.3 180.03-42.3 180.03-7.15Q180.03-5.15 180.66-4.42 181.28-3.7 183.03-3.7L183.03-3.7Q184.43-3.7 185.53-4L185.53-4 185.53 0.3Q183.53 0.65 182.38 0.65L182.38 0.65ZM199.78-27.65Q204.18-27.65 206.48-26.18 208.78-24.7 209.53-22.23 210.28-19.75 210.28-16L210.28-16 210.28 0 205.58 0 205.58-2.75Q203.68-0.95 201.78-0.15 199.88 0.65 197.68 0.65L197.68 0.65Q195.08 0.65 192.98-0.48 190.88-1.6 189.66-3.73 188.43-5.85 188.43-8.75L188.43-8.75Q188.43-13.25 191.23-15.73 194.03-18.2 198.78-18.2L198.78-18.2Q202.53-18.2 205.53-16.55L205.53-16.55Q205.48-19 205.03-20.45 204.58-21.9 203.18-22.68 201.78-23.45 199.03-23.45L199.03-23.45 195.33-23.45 195.33-27.65 199.78-27.65ZM198.33-3.4Q200.03-3.4 201.91-4.2 203.78-5 205.58-6.6L205.58-6.6 205.58-12.9Q202.78-14.3 199.48-14.3L199.48-14.3Q196.83-14.3 195.03-13.03 193.23-11.75 193.23-8.75L193.23-8.75Q193.23-5.95 194.75-4.67 196.28-3.4 198.33-3.4L198.33-3.4ZM253.83-37.9L258.68-37.9 258.68 0 253.83 0 253.83-16.85 234.72-16.85 234.72 0 229.88 0 229.88-37.9 234.72-37.9 234.72-21.25 253.83-21.25 253.83-37.9ZM271.72-13.45Q271.82-8.85 274.02-6.1 276.22-3.35 281.02-3.35L281.02-3.35Q284.67-3.35 289.02-5.4L289.02-5.4 290.47-1.5Q285.92 0.85 280.62 0.85L280.62 0.85Q276.22 0.85 273.12-1 270.02-2.85 268.42-6.15 266.82-9.45 266.82-13.85L266.82-13.85Q266.82-18.5 268.5-21.78 270.17-25.05 273.02-26.75 275.87-28.45 279.42-28.45L279.42-28.45Q284.87-28.45 287.97-25.05 291.07-21.65 291.07-15.3L291.07-15.3 291.07-13.45 271.72-13.45ZM279.42-24.25Q273.22-24.25 272.02-17.4L272.02-17.4 286.12-17.4Q285.87-20.9 284.22-22.58 282.57-24.25 279.42-24.25L279.42-24.25ZM306.27-27.65Q310.67-27.65 312.97-26.18 315.27-24.7 316.02-22.23 316.77-19.75 316.77-16L316.77-16 316.77 0 312.07 0 312.07-2.75Q310.17-0.95 308.27-0.15 306.37 0.65 304.17 0.65L304.17 0.65Q301.57 0.65 299.47-0.48 297.37-1.6 296.14-3.73 294.92-5.85 294.92-8.75L294.92-8.75Q294.92-13.25 297.72-15.73 300.52-18.2 305.27-18.2L305.27-18.2Q309.02-18.2 312.02-16.55L312.02-16.55Q311.97-19 311.52-20.45 311.07-21.9 309.67-22.68 308.27-23.45 305.52-23.45L305.52-23.45 301.82-23.45 301.82-27.65 306.27-27.65ZM304.82-3.4Q306.52-3.4 308.39-4.2 310.27-5 312.07-6.6L312.07-6.6 312.07-12.9Q309.27-14.3 305.97-14.3L305.97-14.3Q303.32-14.3 301.52-13.03 299.72-11.75 299.72-8.75L299.72-8.75Q299.72-5.95 301.25-4.67 302.77-3.4 304.82-3.4L304.82-3.4ZM342.52-27.65L347.42-27.65 336.97 0.45 331.57 0.45 321.02-27.65 325.92-27.65 334.27-4.75 342.52-27.65ZM356.11-13.45Q356.21-8.85 358.41-6.1 360.61-3.35 365.41-3.35L365.41-3.35Q369.06-3.35 373.41-5.4L373.41-5.4 374.86-1.5Q370.31 0.85 365.01 0.85L365.01 0.85Q360.61 0.85 357.51-1 354.41-2.85 352.81-6.15 351.21-9.45 351.21-13.85L351.21-13.85Q351.21-18.5 352.89-21.78 354.56-25.05 357.41-26.75 360.26-28.45 363.81-28.45L363.81-28.45Q369.26-28.45 372.36-25.05 375.46-21.65 375.46-15.3L375.46-15.3 375.46-13.45 356.11-13.45ZM363.81-24.25Q357.61-24.25 356.41-17.4L356.41-17.4 370.51-17.4Q370.26-20.9 368.61-22.58 366.96-24.25 363.81-24.25L363.81-24.25ZM395.31-28.25Q400.41-28.25 402.89-25.55 405.36-22.85 405.36-16.65L405.36-16.65 405.36 0 400.66 0 400.66-16.65Q400.66-20.55 399.34-22.2 398.01-23.85 394.66-23.85L394.66-23.85Q390.76-23.85 386.86-20.45L386.86-20.45 386.86 0 382.16 0 382.16-27.65 386.86-27.65 386.86-24.7Q390.96-28.25 395.31-28.25L395.31-28.25Z" opacity="1" transform="matrix(1,0,0,1,0,0)" fill="#000000" class="wordmark-text-0" data-fill-palette-color="primary" id="text-0"></path></svg></g></svg></g></svg></g></svg></g></svg></g><defs></defs></svg><rect width="395.52" height="42.30710956866634" fill="none" stroke="none" visibility="hidden"></rect></g></svg></g></svg>